<svg width="40" height="40" viewBox="0 0 40 40" fill="none" xmlns="http://www.w3.org/2000/svg">
<g id="ph:star-four-fill">
<path id="Vector" d="M37.5002 20C37.5041 20.5127 37.3483 21.0139 37.0542 21.4339C36.7602 21.854 36.3426 22.172 35.8595 22.3437L25.947 25.9484L22.3439 35.8593C22.1663 36.3378 21.8466 36.7504 21.4276 37.0418C21.0086 37.3332 20.5105 37.4894 20.0002 37.4894C19.4898 37.4894 18.9917 37.3332 18.5727 37.0418C18.1538 36.7504 17.834 36.3378 17.6564 35.8593L14.0517 25.9375L4.14078 22.3437C3.66234 22.1661 3.2497 21.8464 2.95832 21.4274C2.66693 21.0084 2.51074 20.5103 2.51074 20C2.51074 19.4896 2.66693 18.9915 2.95832 18.5725C3.2497 18.1536 3.66234 17.8338 4.14078 17.6562L14.0627 14.0515L17.6564 4.1406C17.834 3.66215 18.1538 3.24952 18.5727 2.95813C18.9917 2.66674 19.4898 2.51056 20.0002 2.51056C20.5105 2.51056 21.0086 2.66674 21.4276 2.95813C21.8466 3.24952 22.1663 3.66215 22.3439 4.1406L25.9486 14.0625L35.8595 17.6562C36.3426 17.828 36.7602 18.146 37.0542 18.566C37.3483 18.9861 37.5041 19.4873 37.5002 20Z" fill="#FBEBD7"/>
</g>
</svg>
