<svg width="70" height="70" viewBox="0 0 70 70" fill="none" xmlns="http://www.w3.org/2000/svg">
<g id="solar:star-linear">
<path id="Vector" d="M26.6961 15.7733C30.3915 9.14665 32.2378 5.83331 34.9999 5.83331C37.762 5.83331 39.6082 9.14665 43.3036 15.7733L44.2603 17.4883C45.3103 19.3725 45.8353 20.3146 46.652 20.9358C47.4686 21.5571 48.4895 21.7875 50.5311 22.2483L52.3861 22.6683C59.5611 24.2929 63.1457 25.1037 64.0003 27.8483C64.852 30.59 62.4078 33.4512 57.5165 39.1708L56.2507 40.6496C54.8624 42.2741 54.1653 43.0879 53.8532 44.0912C53.5411 45.0975 53.6461 46.1825 53.8561 48.3496L54.0486 50.3241C54.7865 57.9571 55.157 61.7721 52.9228 63.4666C50.6886 65.1641 47.3286 63.6154 40.6145 60.5237L38.8732 59.7246C36.9657 58.8437 36.012 58.4062 34.9999 58.4062C33.9878 58.4062 33.034 58.8437 31.1265 59.7246L29.3882 60.5237C22.6711 63.6154 19.3111 65.1612 17.0799 63.4696C14.8428 61.7721 15.2132 57.9571 15.9511 50.3241L16.1436 48.3525C16.3536 46.1825 16.4586 45.0975 16.1436 44.0941C15.8345 43.0879 15.1374 42.2741 13.749 40.6525L12.4832 39.1708C7.59196 33.4541 5.14779 30.5929 5.99945 27.8483C6.85404 25.1037 10.4415 24.29 17.6165 22.6683L19.4715 22.2483C21.5103 21.7875 22.5282 21.5571 23.3478 20.9358C24.1645 20.3146 24.6895 19.3725 25.7395 17.4883L26.6961 15.7733Z" stroke="#F8F9FF" stroke-width="4"/>
</g>
</svg>
