<svg width="70" height="70" viewBox="0 0 70 70" fill="none" xmlns="http://www.w3.org/2000/svg">
<g id="uit:process">
<path id="Vector" d="M26.2502 20.4166H15.0064C17.7151 16.6919 21.4074 13.7948 25.6697 12.0501C29.932 10.3053 34.5959 9.78167 39.1389 10.5379C39.5128 10.5843 39.8902 10.4841 40.1919 10.2584C40.4936 10.0326 40.6963 9.69889 40.7574 9.32708C40.8185 8.95526 40.7333 8.57423 40.5196 8.26384C40.306 7.95345 39.9805 7.73779 39.6114 7.66206C38.0868 7.41482 36.5447 7.29095 35.0002 7.29165C30.7786 7.29873 26.6142 8.26833 22.8236 10.1267C19.0331 11.9851 15.7162 14.6833 13.1252 18.0162V7.29165C13.1252 6.90487 12.9715 6.53394 12.698 6.26045C12.4245 5.98696 12.0536 5.83331 11.6668 5.83331C11.2801 5.83331 10.9091 5.98696 10.6356 6.26045C10.3621 6.53394 10.2085 6.90487 10.2085 7.29165V21.875C10.2085 22.2618 10.3621 22.6327 10.6356 22.9062C10.9091 23.1797 11.2801 23.3333 11.6668 23.3333H26.2502C26.6369 23.3333 27.0079 23.1797 27.2814 22.9062C27.5549 22.6327 27.7085 22.2618 27.7085 21.875C27.7085 21.4882 27.5549 21.1173 27.2814 20.8438C27.0079 20.5703 26.6369 20.4166 26.2502 20.4166ZM21.8752 42.2916C21.4884 42.2916 21.1175 42.4453 20.844 42.7188C20.5705 42.9923 20.4168 43.3632 20.4168 43.75V54.9937C16.6921 52.285 13.795 48.5927 12.0502 44.3304C10.3055 40.0682 9.78186 35.4043 10.5381 30.8612C10.5844 30.4873 10.4843 30.1099 10.2585 29.8082C10.0328 29.5065 9.69907 29.3039 9.32726 29.2428C8.95544 29.1817 8.57441 29.2669 8.26402 29.4805C7.95363 29.6941 7.73797 30.0196 7.66225 30.3887C6.84018 35.3269 7.36845 40.3955 9.19116 45.058C11.0139 49.7205 14.0632 53.8036 18.0164 56.875H7.29183C6.90506 56.875 6.53412 57.0286 6.26063 57.3021C5.98714 57.5756 5.8335 57.9465 5.8335 58.3333C5.8335 58.7201 5.98714 59.091 6.26063 59.3645C6.53412 59.638 6.90506 59.7916 7.29183 59.7916H21.8752C22.2619 59.7916 22.6329 59.638 22.9064 59.3645C23.1798 59.091 23.3335 58.7201 23.3335 58.3333V43.75C23.3335 43.3632 23.1798 42.9923 22.9064 42.7188C22.6329 42.4453 22.2619 42.2916 21.8752 42.2916ZM58.3335 46.6666H43.7502C43.3634 46.6666 42.9925 46.8203 42.719 47.0938C42.4455 47.3673 42.2918 47.7382 42.2918 48.125C42.2918 48.5118 42.4455 48.8827 42.719 49.1562C42.9925 49.4297 43.3634 49.5833 43.7502 49.5833H54.9939C52.2852 53.3081 48.5929 56.2051 44.3306 57.9499C40.0683 59.6947 35.4045 60.2183 30.8614 59.4621C30.4875 59.4157 30.1101 59.5159 29.8084 59.7416C29.5067 59.9673 29.304 60.3011 29.243 60.6729C29.1819 61.0447 29.2671 61.4257 29.4807 61.7361C29.6943 62.0465 30.0198 62.2622 30.3889 62.3379C31.9135 62.5851 33.4556 62.709 35.0002 62.7083C39.2217 62.7012 43.3861 61.7316 47.1767 59.8733C50.9672 58.0149 54.2841 55.3166 56.8752 51.9837V62.7083C56.8752 63.0951 57.0288 63.466 57.3023 63.7395C57.5758 64.013 57.9467 64.1666 58.3335 64.1666C58.7203 64.1666 59.0912 64.013 59.3647 63.7395C59.6382 63.466 59.7918 63.0951 59.7918 62.7083V48.125C59.7918 47.7382 59.6382 47.3673 59.3647 47.0938C59.0912 46.8203 58.7203 46.6666 58.3335 46.6666ZM62.7085 10.2083H48.1252C47.7384 10.2083 47.3675 10.362 47.094 10.6354C46.8205 10.9089 46.6668 11.2799 46.6668 11.6666V26.25C46.6668 26.6368 46.8205 27.0077 47.094 27.2812C47.3675 27.5547 47.7384 27.7083 48.1252 27.7083C48.5119 27.7083 48.8829 27.5547 49.1564 27.2812C49.4298 27.0077 49.5835 26.6368 49.5835 26.25V14.9916C52.3941 17.0103 54.7393 19.6082 56.461 22.61C58.6468 26.373 59.7961 30.6482 59.7918 35C59.7918 36.3854 59.6839 37.7708 59.4622 39.1387C59.4312 39.3276 59.4377 39.5206 59.4813 39.707C59.5249 39.8933 59.6048 40.0692 59.7163 40.2247C59.8279 40.3801 59.969 40.5121 60.1316 40.613C60.2942 40.714 60.4751 40.7819 60.6639 40.8129C60.8527 40.8439 61.0458 40.8374 61.2322 40.7938C61.4185 40.7503 61.5944 40.6704 61.7499 40.5588C61.9053 40.4472 62.0373 40.3061 62.1382 40.1435C62.2391 39.9809 62.307 39.8001 62.3381 39.6112C62.5852 38.0866 62.7091 36.5445 62.7085 35C62.7128 30.1375 61.4298 25.3605 58.9897 21.1546C57.213 18.0422 54.8368 15.313 51.9985 13.125H62.7085C63.0953 13.125 63.4662 12.9713 63.7397 12.6978C64.0132 12.4244 64.1668 12.0534 64.1668 11.6666C64.1668 11.2799 64.0132 10.9089 63.7397 10.6354C63.4662 10.362 63.0953 10.2083 62.7085 10.2083Z" fill="#F8F9FF"/>
</g>
</svg>
